<svg enable-background="new 0 0 126 126" id="Layer_1" version="1.1" viewBox="0 0 126 126" xml:space="preserve" xmlns="http://www.w3.org/2000/svg" xmlns:xlink="http://www.w3.org/1999/xlink"><g><g><path d="M106.7532,63.5738c-1.413,0.2057-14.8281-4.1895-16.25-10.1994    c-1.422-6.0182-12.1541-12.2824-16.724-10.7352c-4.5699,1.5471-10.5618-0.1074-10.5618-0.1074l-3.774-1.8244l-0.8586-0.4114    h-0.0089L1,73.5389l64.0335,37.22l55.9482-32.3041c1.565-0.903,2.8707-2.2445,3.5504-3.917    C128.3061,65.3087,108.0499,63.3948,106.7532,63.5738z" fill="#F3F6FD"/><g><path d="M50.0946,88.3761c0.02,0.0298,0,0.0601,0,0.0601c-0.02,0-0.39,0.1001-1.0699,0.0601     c-0.44-0.0303-0.5601,0.04-0.59,0.0898c-0.02,0.0298,0.01,0.0601,0.06,0.0601c0.37,0.02,0.53,0.1201,0.59,0.1899     c0.03,0.0298,0.04,0.0601,0.05,0.0801c0.01,0.0298-0.04,0.0601-0.09,0.0498c-0.14-0.0098-0.43-0.0498-0.92-0.1597     c-0.59-0.1201-0.68-0.25-0.75-0.3301c0.02,0.0498,0.04,0.0801,0.04,0.0801c-0.47,0.0498-2.72,0.1797-3.86,0.1899     c-0.34,0-0.65,0.1802-0.65,0.3599c0.02,0.8599-0.15,2.9702-2.18,3.54h-0.01l-1.95,0.7197h-0.01     c-0.15,0.1401-0.21,0.25-0.07,0.3403c0.18,0.1201,0.34,0.0098,0.55,0.1099c0.64,0.3101,0.34,1.0801,0.03,1.6104     c0.16,0.1099,0.3,0.2598,0.25,0.5l-5.38-3.1201c0.05-0.23,0.16-0.4902,0.38-0.8203c1.24-1.8701,1.6-4.7397,1.86-5.1396     c-0.04-0.4102,0.09-0.9502,0.72-1.6104c0.62-0.6499,1.06-1.3999,1.34-1.9897c0.23-0.48,0.35-0.9702,0.41-1.4502     c0.1801-1.48,2.46-7.2998,2.46-7.2998c0.34-0.04,0.7-0.0303,1.01,0.0298c0.09-0.21,0.26-0.3896,0.44-0.4697     c0.2-0.0903,0.42-0.1104,0.64-0.1299c0.47-0.0303,0.95-0.0205,1.42,0.0498c0.05,0.0098,0.11,0.0098,0.15,0.0498     c0.08,0.0601,0.09,0.1699,0.09,0.27c0,0.1899,0,0.3804-0.09,0.5503c-0.09,0.1597-0.2599,0.2695-0.4399,0.3301     c-0.1801,0.0596-0.3701,0.0698-0.5601,0.0698c-0.22,0.0098-0.62,0.0698-0.97,0.0698c-0.42,1.3999-1.46,5.5-1.64,6.2803     c-0.03,0.1299-0.05,0.2598-0.06,0.3896c0.21-0.46,0.36-0.8496,0.39-1.02c0.22-1.4697,2.12-4.9897,2.12-4.9897     c0.21-0.02,0.43-0.0303,0.64-0.0103c0.03-0.1899,0.2-0.3501,0.38-0.4399c0.57-0.3101,1.21-0.4199,1.84-0.52     c0.62-0.1001,1.23-0.1997,1.85-0.27c0.17-0.0298,0.4-0.0996,0.55,0.0103c0.23,0.1699,0.08,0.4497-0.1,0.5801     c-0.33,0.25-0.77,0.2896-1.12,0.4897c-0.18,0.1001-0.34,0.2402-0.52,0.3203c-0.25,0.1099-0.54,0.1099-0.8,0.21     c-0.25,0.0801-0.46,0.2397-0.69,0.3599c-0.1201,0.0698-0.25,0.1201-0.38,0.1499c-0.01,0-0.01,0-0.01,0     c-0.37,1.04-1.08,3.2202-1.25,3.96c-0.07,0.3203-0.09,0.6299-0.05,0.9399c0.06,0.3999,0.09,0.7803,0.09,1.1401     c0,1.8701-0.7,3.2197-0.7,3.2197c-0.05,0.25-0.23,0.8403-0.44,1.5205c1.87-0.0503,4.58,0.1797,4.58,0.1797     c-0.05,0.0303-0.1,0.0703-0.14,0.1104c0.02-0.0103,0.04-0.0103,0.06-0.0205c0.56-0.21,1.41-0.2197,1.8-0.1699     c0.11,0.0103,0.16,0.0303,0.18,0.0503c0.04,0.0498-0.17,0.1099-0.25,0.1401c0.05-0.0103,0.2-0.0103,0.56,0.0498     c0.1,0.0098,0.14,0.0298,0.16,0.0498c0.03,0.04-0.16,0.0703-0.28,0.0801c0.21-0.02,0.27-0.0098,0.27-0.0098     c0.08,0.0298,0.12,0.0498,0.13,0.0698c0.08,0.0898-0.53,0.1099-0.56,0.1099C49.9446,88.2863,50.0646,88.3361,50.0946,88.3761z" fill="#E1E9F4"/></g><g><g><g><g enable-background="new    "><g><path d="M100.4446,78.256l-0.02,3.0801c0,0.0698-0.04,0.1299-0.1,0.1699c-0.01,0-0.02,0.0103-0.02,0.0103         l-3.64,2.6099l-0.05,0.04l2.51,4.8101l-9.73,6.96l-1.63,0.4102l-2.23-4.7002l-2.24,1.6099         c-0.07,0.04-0.15,0.0703-0.25,0.0703c-0.02,0.0098-0.04,0-0.06,0l-8.55-0.73c-0.16-0.0103-0.27-0.1001-0.27-0.21l0.01-1.9502         c0-0.0498,0.03-0.1099,0.1-0.1602l2.5699-1.8496l-6.92-7.8403v-1.29l4.33-5.4897l7.85-0.1104l6.06,1.7603l3.13,3.0698         c0.07-0.04,0.15-0.0698,0.25-0.0801l8.55-0.3999C100.2946,78.0363,100.4446,78.1261,100.4446,78.256z" fill="#E1E9F4"/></g></g></g></g></g><polygon fill="#FDFEFF" points="114.3776,82.268 77.9325,61.369 69.2113,66.4043 105.6567,87.3033 105.1331,87.6055     68.6877,66.7064 41.4864,82.411 77.933,103.311 77.4095,103.6131 40.9629,82.7132 32.2464,87.7459 68.6933,108.6458     68.1698,108.948 3.8887,71.8713 4.4122,71.5687 31.8341,87.5061 40.5505,82.4739 13.1285,66.5364 13.652,66.2338 41.0741,82.1717     49.8707,77.0927 22.4485,61.1553 22.8211,60.94 50.2434,76.8775 59.1155,71.7553 31.693,55.8174 32.061,55.6052 59.4834,71.543     68.2753,66.4667 40.8527,50.5288 41.3762,50.2266 68.7989,66.1645 77.5201,61.1292 50.0972,45.1913 50.6208,44.8892     114.9011,81.9659   "/></g><path d="M90.56,61.2059l-32.173-18.5752c-0.6205-0.3584-1.3854-0.3569-2.0049,0.0029l-2.8355,1.6479   c-1.329,0.772-1.3263,2.6924,0.0049,3.4609l32.173,18.5752c0.6206,0.3584,1.3854,0.3574,2.0049-0.0024l2.8355-1.6479   C91.8939,63.8949,91.8911,61.9745,90.56,61.2059z" fill="#E1E9F4"/><g><g><g><polygon fill="#4C4A8B" points="77.6831,62.6663 77.717,50.7963 77.1778,50.4851 77.1422,62.9766 84.5714,67.2659       84.5723,66.6444     "/><g><g><g><g enable-background="new    "><g><polygon fill="#83A1CC" points="69.5333,56.8361 76.9814,52.5077 76.973,53.4693 69.5249,57.7976          "/></g><g><polygon fill="#DEE7F8" points="57.3792,49.8189 63.1727,46.4521 75.3268,53.4693 69.5333,56.8361          "/></g><g><polygon fill="#9EB5DF" points="69.5333,56.8361 69.5249,57.7976 57.3709,50.7804 57.3792,49.8189          "/></g></g></g><g><g><g enable-background="new    "><g><path d="M69.596,46.4054v7.4029l1.0254-0.5958V47.011C70.2801,46.808,69.94,46.6024,69.596,46.4054z" fill="#83A1CC"/></g><g><path d="M63.4521,43.1417v7.1195l6.1439,3.5471v-7.4029C67.5813,45.2522,65.5214,44.196,63.4521,43.1417z" fill="#9EB5DF"/></g></g></g></g><g><g><g enable-background="new    "><g><path d="M84.2762,33.7902l-0.055,23.4316c-0.0022,0.3454-0.1232,0.5873-0.3189,0.7017l-0.751,0.4398            c-0.2001,0.1232-0.4795,0.11-0.7874-0.0682L53.7581,41.7799c-0.6004-0.3497-1.0887-1.1943-1.0865-1.8871l0.0572-23.4317            c0-0.365,0.1364-0.6158,0.3541-0.7192c-0.0132,0.0044-0.0264,0.0111-0.0374,0.0176l0.762-0.4444            c0.2001-0.1165,0.4729-0.0989,0.7764,0.0749l28.6059,16.5153C83.7924,32.2528,84.2784,33.0973,84.2762,33.7902z" fill="#83A1CC"/></g><path d="M83.5169,34.2364l-0.0571,23.4271c0,0.6943-0.4946,0.9795-1.0939,0.6279L53.7625,41.7821           c-0.6087-0.352-1.0938-1.1987-1.0938-1.893l0.0571-23.4271c0-0.6943,0.4946-0.9702,1.0938-0.6279l28.6035,16.5191           C83.0318,32.6954,83.5169,33.5421,83.5169,34.2364z" fill="#B6CBEA"/><polygon fill="#6262AA" points="53.6532,16.8102 53.6081,38.0902 82.5422,54.7965 82.5872,33.5161          "/><g><polygon fill="#4C4A8B" points="53.6531,16.8103 53.6462,20.0949 82.5803,36.8014 82.5872,33.5161           "/></g><g><g><path d="M77.2122,31.5162c0.3064,0.1769,0.5543,0.6063,0.5533,0.9584             c-0.001,0.352-0.2505,0.4943-0.5569,0.3174c-0.3064-0.1769-0.5543-0.6063-0.5533-0.9584             C76.6563,31.4815,76.9058,31.3393,77.2122,31.5162z" fill="#83A1CC"/></g><g><path d="M79.2249,32.6782c0.3079,0.1778,0.5543,0.6063,0.5533,0.9584             c-0.001,0.352-0.249,0.4951-0.5569,0.3174c-0.3064-0.1769-0.5528-0.6055-0.5518-0.9575             C78.6705,32.6444,78.9185,32.5013,79.2249,32.6782z" fill="#83A1CC"/></g><g><path d="M81.2391,33.8411c0.3064,0.1769,0.5543,0.6063,0.5533,0.9584             c-0.001,0.352-0.2506,0.4943-0.5569,0.3174c-0.3064-0.1769-0.5543-0.6063-0.5533-0.9584S80.9327,33.6642,81.2391,33.8411             z" fill="#83A1CC"/></g></g><path d="M66.7365,46.5417c-0.361-0.2083-0.6544-0.0411-0.6555,0.3737           c-0.0012,0.4148,0.2903,0.9196,0.6513,1.1279s0.6544,0.0413,0.6555-0.3735           C67.3889,47.2551,67.0974,46.7503,66.7365,46.5417z" fill="#83A1CC"/></g></g></g></g><g><g><polygon fill="#DEE7F8" points="55.7982,23.1837 55.7948,24.4037 54.4041,23.6008 54.4076,22.3808        "/></g><g><polygon fill="#DEE7F8" points="55.7924,25.2342 55.789,26.4543 54.3983,25.6514 54.4018,24.4313        "/></g><g><polygon fill="#DEE7F8" points="55.7866,27.2848 55.7831,28.5048 54.3925,27.7019 54.396,26.4819        "/></g><g><polygon fill="#DEE7F8" points="55.7808,29.3329 55.7773,30.5553 54.3867,29.7524 54.3901,28.53        "/></g><g><polygon fill="#DEE7F8" points="55.775,31.3835 55.7715,32.6036 54.3809,31.8007 54.3843,30.5806        "/></g><g><polygon fill="#DEE7F8" points="55.7692,33.4339 55.7657,34.654 54.3751,33.8511 54.3785,32.631        "/></g><g><polygon fill="#DEE7F8" points="55.7634,35.4845 55.7599,36.7045 54.3692,35.9017 54.3727,34.6816        "/></g><g><polygon fill="#DEE7F8" points="57.8994,24.3968 57.896,25.6169 56.5074,24.8151 56.5108,23.5951        "/></g><g><polygon fill="#DEE7F8" points="57.8936,26.4474 57.8902,27.6674 56.5015,26.8657 56.505,25.6456        "/></g><g><polygon fill="#DEE7F8" points="57.8878,28.4979 57.8844,29.718 56.4957,28.9163 56.4992,27.6962        "/></g><g><polygon fill="#DEE7F8" points="57.882,30.5461 57.8785,31.7684 56.4899,30.9667 56.4934,29.7444        "/></g><g><polygon fill="#DEE7F8" points="57.8762,32.5966 57.8727,33.8167 56.4841,33.015 56.4876,31.7949        "/></g><g><polygon fill="#DEE7F8" points="57.8704,34.6471 57.8669,35.8671 56.4783,35.0654 56.4818,33.8453        "/></g><g><polygon fill="#DEE7F8" points="57.8646,36.6976 57.8611,37.9177 56.4725,37.116 56.4759,35.8959        "/></g><g><polygon fill="#FFFFFF" points="73.6152,34.9938 73.5778,48.1951 60.1152,40.4225 60.1526,27.2212        "/></g><g><polygon fill="#9EB5DF" points="58.9043,24.977 74.8721,34.196 74.8304,48.9183 73.5778,48.1951 73.6152,34.9938          60.1526,27.2212 60.1152,40.4225 58.8626,39.6993        "/></g><g><polygon fill="#3887E5" points="80.7055,37.3443 80.6949,41.0931 77.4324,39.2095 77.4431,35.4608        "/></g><g><polygon fill="#B6CBEA" points="77.6807,40.5351 77.671,43.9457 76.2946,43.151 76.3042,39.7404        "/></g><g enable-background="new    "><g><polygon fill="#A6C2FF" points="81.7927,51.3023 81.7912,51.8108 76.279,48.6283 76.2805,48.1198         "/></g><g><polygon fill="#A6C2FF" points="81.7955,50.2805 81.7941,50.7891 76.2819,47.6066 76.2834,47.0981         "/></g><g><polygon fill="#6B9EF9" points="81.8007,48.4703 81.798,49.4035 76.2859,46.221 76.2885,45.2879         "/></g></g><g><polygon fill="#B6CBEA" points="81.8164,42.9229 81.8067,46.3335 80.4303,45.5388 80.44,42.1282        "/></g><g><polygon fill="#B6CBEA" points="81.8039,47.3435 81.8024,47.8521 76.2903,44.6696 76.2917,44.1611        "/></g><g><polygon fill="#B6CBEA" points="79.7495,41.7296 79.7399,45.1402 78.3634,44.3455 78.3731,40.9349        "/></g></g><g><g><g enable-background="new    "><g><polygon fill="#3887E5" points="68.4309,35.2671 68.427,36.6334 66.3423,35.4298 66.3462,34.0635          "/></g><g><polygon fill="#1E72C6" points="66.3462,34.0635 66.3423,35.4298 64.2733,36.6322 64.2772,35.2659          "/></g><g><path d="M66.3391,32.8006l4.2721,2.4665l-4.2422,2.4653l-4.2721-2.4665L66.3391,32.8006z M66.3619,36.4695           l2.069-1.2024l-2.0847-1.2036l-2.069,1.2024L66.3619,36.4695" fill="#A6C2FF"/></g></g></g><g><g enable-background="new    "><g><polygon fill="#A6C2FF" points="67.4432,40.7519 66.6388,39.8477 68.3465,38.8618 69.5278,39.5483          "/></g><g><polygon fill="#3887E5" points="69.5278,39.5483 68.3465,38.8618 68.3397,36.8669 69.521,37.1528          "/></g><g><path d="M66.369,37.7324l4.2422-2.4653l0.0139,4.9064L66.353,42.64L66.369,37.7324z M69.5278,39.5483           l-0.0068-2.3955l-2.0847,1.2036l0.0068,2.3955L69.5278,39.5483" fill="#1E72C6"/></g></g></g><g><g enable-background="new    "><g><polygon fill="#A6C2FF" points="65.2629,40.7519 66.1834,39.9148 64.3595,38.8618 63.1782,39.5483          "/></g><g><polygon fill="#1E72C6" points="63.1782,39.5483 64.3595,38.8618 64.3663,36.8669 63.185,37.1528          "/></g><g><path d="M66.353,42.64l-4.2721-2.4665l0.0139-4.9064l4.2721,2.4665L66.353,42.64z M63.1782,39.5483           l2.0847,1.2036l0.0068-2.3955l-2.0847-1.2036L63.1782,39.5483" fill="#3887E5"/></g></g></g></g></g><g><g><g enable-background="new    "><g><path d="M100.2088,72.6116c-0.0631-0.0359-0.1494-0.0295-0.242,0.0231          c-0.0232,0.0126-0.0463,0.0295-0.0674,0.0462l-8.5162,6.8812L74.414,69.7013l8.5162-6.8812          c0.0231-0.0169,0.0463-0.0337,0.0673-0.0462c0.0947-0.0526,0.181-0.059,0.2441-0.0232L100.2088,72.6116z" fill="#B6CBEA"/></g><g><g><path d="M91.6654,77.2061c0.2921,0.1686,0.3004,0.5039,0.0186,0.7487           c-0.2818,0.2448-0.7471,0.3066-1.0392,0.138c-0.292-0.1686-0.3004-0.5039-0.0186-0.7487           C90.908,77.0993,91.3734,77.0375,91.6654,77.2061z" fill="#4C4A8B"/></g><g><polygon fill="#6B9EF9" points="95.8522,74.7812 94.8338,75.6659 93.157,74.6977 94.1753,73.813          "/></g><g><path d="M94.1695,73.5959l1.9841,1.1455l-1.3139,1.1415l-1.9841-1.1455L94.1695,73.5959z M94.8338,75.6659           l1.0183-0.8847l-1.6769-0.9681l-1.0183,0.8847L94.8338,75.6659" fill="#FFFFFF"/></g><g><path d="M93.1062,75.9543c0.2921,0.1686,0.3004,0.5039,0.0182,0.7491           c-0.2818,0.2448-0.7471,0.3066-1.0392,0.1379c-0.292-0.1686-0.3004-0.5039-0.0186-0.7487           C92.3488,75.8475,92.8141,75.7857,93.1062,75.9543z" fill="#4C4A8B"/></g></g><polygon fill="#3A3A77" points="83.3022,66.7275 93.7262,72.7848 96.563,70.4927 86.1395,64.4348        "/><g><path d="M91.2191,83.6634l-16.9693-9.8609c-0.061-0.0358-0.0989-0.1115-0.0989-0.2189l-0.0105-3.3395          c0-0.1873,0.1136-0.4146,0.2736-0.5429l16.9693,9.8609c-0.1599,0.1283-0.2757,0.3556-0.2736,0.5429l0.0084,3.3395          C91.1181,83.5519,91.156,83.6277,91.2191,83.6634z" fill="#9EB5DF"/></g><g><path d="M99.966,72.635c0.184-0.1062,0.3418-0.0249,0.3424,0.1957l0.015,5.2988          c0.0006,0.2172-0.1518,0.4813-0.3409,0.5904l-8.5218,4.92c-0.1883,0.1087-0.3417,0.0213-0.3424-0.196l-0.0095-3.3391          c-0.0005-0.1872,0.1135-0.4141,0.2733-0.5434l8.5162-6.8797C99.9212,72.6634,99.9438,72.6478,99.966,72.635z" fill="#83A1CC"/></g><g><polygon fill="#9EB5DF" points="96.8545,77.9566 96.859,79.5621 99.4532,78.0644 99.4487,76.4588         "/></g></g></g><g><g enable-background="new    "><g><polygon fill="#2A2A5E" points="89.295,54.8677 86.4967,66.9504 85.9496,66.6289 88.6388,55.0172         "/></g><g><polygon fill="#6262AA" points="88.6388,55.0172 85.9496,66.6289 85.0093,66.0861 87.6985,54.4743         "/></g><g><polygon fill="#4C4A8B" points="97.1074,59.3782 94.3091,71.4609 86.4967,66.9504 89.295,54.8677         "/></g><g><polygon fill="#DEE7F8" points="97.1074,59.3782 94.3091,71.4609 86.4967,66.9504 89.295,54.8677         "/></g><g><polygon fill="#FFFFFF" points="87.0695,63.0454 85.871,68.2202 93.6774,72.7565 94.8818,67.5558         "/></g><g><polygon fill="#6262AA" points="97.3914,60.0705 94.6947,71.7142 93.7607,71.1443 96.4511,59.5276         "/></g><g><polygon fill="#2A2A5E" points="99.0142,59.7009 96.5165,70.4858 94.6947,71.7142 97.3914,60.0705         "/></g><g><polygon fill="#3A3A77" points="99.0142,59.7009 97.3914,60.0705 96.4511,59.5276 97.1074,59.3782 89.295,54.8677           88.6388,55.0172 87.6985,54.4743 89.3214,54.1047         "/></g></g></g><g><g enable-background="new    "><g><polygon fill="#2A2A5E" points="79.9551,85.0889 87.6985,80.5889 87.6972,81.0741 79.9537,85.5741         "/></g><g><polygon fill="#6262AA" points="69.922,79.2963 77.6654,74.7963 87.6985,80.5889 79.9551,85.0889         "/></g><g><polygon fill="#FFFFFF" points="73.4776,79.1398 79.314,75.7481 86.4967,79.895 80.6603,83.2868         "/></g><g><polygon fill="#3A3A77" points="79.9551,85.0889 79.9537,85.5741 69.9206,79.7815 69.922,79.2963         "/></g></g></g><g><polygon fill="#FFFFFF" points="85.9924,79.6018 80.155,82.9939 72.9729,78.8463 78.8103,75.4562 78.9408,75.5319         79.6204,75.9234 80.3528,76.3463 80.9167,76.6726 81.5964,77.0639 81.9015,77.2407 82.2677,77.4511 82.638,77.6658         83.3198,78.0593       "/></g><g><g><g enable-background="new    "><g><polygon fill="#1E72C6" points="80.8574,76.6392 80.6133,76.7823 79.9378,77.1759 79.8789,77.2095 79.8789,77.14            79.881,76.3593 80.1251,76.2163          "/></g><g><path d="M81.4214,76.9654l-0.2441,0.141l-0.564-0.3241l-0.7323-0.423l0.2441-0.143l-0.6797-0.3915           l-0.9196,0.5345l1.3531,0.7807v0.0022l0.0589,0.0337l1.2416,0.7175h0.0021l0.9196-0.5366L81.4214,76.9654z" fill="#A6C2FF"/></g></g></g><g><g enable-background="new    "><g><polygon fill="#A6C2FF" points="81.8484,79.7691 81.3484,79.2072 82.4098,78.5943 83.1441,79.021          "/></g><g><polygon fill="#3887E5" points="83.1448,79.0214 82.4104,78.5941 82.4083,77.9544 82.4062,77.5335 82.7724,77.744            83.1427,77.9586          "/></g><g><path d="M83.8245,78.3522l-0.6818-0.3935l0.0021,1.0627l-1.2963,0.747l-0.0021-0.8481v-0.0021           l-0.0021-0.6376l0.564-0.3262l0.364-0.2104l-0.3661-0.2104l-0.3051-0.1767l-0.9196,0.5366l-0.0105,3.0492l2.6557-1.532           L83.8245,78.3522z" fill="#1E72C6"/></g></g></g><g><g enable-background="new    "><g><polygon fill="#A6C2FF" points="80.4932,79.7691 81.0654,79.2489 79.9317,78.5943 79.1975,79.021          "/></g><g><polygon fill="#1E72C6" points="79.1975,79.021 79.9317,78.5943 79.936,77.3545 79.2017,77.5321          "/></g><g><path d="M79.9378,77.1759l-0.0589-0.0337l-1.3531-0.7829h-0.0021l-0.0084,3.0513l2.6557,1.532           l0.0084-3.0492L79.9378,77.1759z M79.1971,79.0214l0.0042-1.4899l0.7323,0.4229l0.564,0.3262l-0.0021,0.6396           l-0.0021,0.8481L79.1971,79.0214z" fill="#3887E5"/></g></g></g></g></g></g><g><g><g><g><g enable-background="new    "><g><path d="M74.2471,63.6307v1.1533c-0.0071,0.2121-0.1415,0.4174-0.4104,0.5732l-6.864,3.9907           c-0.5519,0.3186-1.4435,0.3186-2.0025-0.0069L41.9229,56.0379c-0.2831-0.1631-0.4246-0.3752-0.4175-0.5874v-1.1533           c0,0.2122,0.1415,0.4243,0.4175,0.587l23.0544,13.3035c0.5519,0.3255,1.4506,0.3255,2.0025,0.0069l6.8569-3.9907           C74.1126,64.0481,74.2471,63.8429,74.2471,63.6307z" fill="#3A3A77"/></g><g><path d="M73.8263,63.0455c0.5557,0.3208,0.5633,0.8398,0.011,1.1608l-6.8585,3.9857           c-0.5521,0.3208-1.4483,0.3183-2.004-0.0026L41.9243,54.8812c-0.5557-0.3208-0.5585-0.8373-0.0065-1.1582l6.8585-3.9857           c0.5523-0.321,1.4438-0.3209,1.9995,0L73.8263,63.0455z" fill="#6262AA"/></g></g></g></g></g><g><g><polygon fill="#B6CBEA" points="68.6084,66.4843 66.3989,67.7683 65.4547,67.2231 67.6641,65.9391       "/></g><g><polygon fill="#B6CBEA" points="67.4789,65.8321 66.4795,66.4129 65.5352,65.8677 66.5346,65.287       "/></g><g><polygon fill="#B6CBEA" points="65.469,60.314 64.4692,60.8951 63.4102,60.2837 64.41,59.7026       "/></g><g><polygon fill="#B6CBEA" points="64.1629,59.56 63.1631,60.141 62.0953,59.5245 63.0951,58.9435       "/></g><g><polygon fill="#B6CBEA" points="62.2649,59.9167 61.265,60.4977 60.206,59.8863 61.2059,59.3053       "/></g><g><polygon fill="#B6CBEA" points="63.5709,60.6707 62.571,61.2518 61.5121,60.6404 62.512,60.0594       "/></g><g><polygon fill="#B6CBEA" points="60.0226,60.0747 59.0233,60.6555 57.9643,60.0441 58.9636,59.4633       "/></g><g><polygon fill="#B6CBEA" points="61.1507,63.6312 60.7303,63.8755 59.6183,63.2336 60.0388,62.9892       "/></g><g><polygon fill="#B6CBEA" points="60.5723,63.9673 60.1514,64.212 59.0394,63.57 59.4604,63.3253       "/></g><g><polygon fill="#B6CBEA" points="59.2751,63.2184 58.8541,63.463 57.751,62.8261 58.172,62.5815       "/></g><g><polygon fill="#B6CBEA" points="58.5121,62.1078 57.5127,62.6885 56.1184,61.8835 57.1178,61.3027       "/></g><g enable-background="new    "><g><polygon fill="#B6CBEA" points="59.4306,61.1855 58.4313,61.7663 57.3723,61.1549 58.3716,60.5741        "/></g><g><polygon fill="#B6CBEA" points="60.7455,61.9447 59.7462,62.5254 58.6784,61.9089 59.6777,61.3282        "/></g></g><g><polygon fill="#B6CBEA" points="61.3287,60.8288 60.3293,61.4095 59.2703,60.7981 60.2697,60.2174       "/></g><g><polygon fill="#B6CBEA" points="62.6436,61.5879 61.6442,62.1687 60.5764,61.5522 61.5758,60.9714       "/></g><g><polygon fill="#B6CBEA" points="61.8607,64.7112 61.4398,64.9558 60.3367,64.3189 60.7576,64.0743       "/></g><g enable-background="new    "><g><polygon fill="#B6CBEA" points="64.8858,61.4299 63.8859,62.0109 62.827,61.3995 63.8268,60.8185        "/></g><g><polygon fill="#B6CBEA" points="67.4457,61.4553 66.4459,62.0364 64.7162,61.0377 65.716,60.4567        "/></g><g><polygon fill="#B6CBEA" points="66.1919,62.184 65.192,62.765 64.1331,62.1536 65.1329,61.5726        "/></g><g><polygon fill="#B6CBEA" points="64.938,62.9126 63.9387,63.4934 61.8913,62.3114 62.8907,61.7306        "/></g><g><polygon fill="#B6CBEA" points="67.7274,63.0705 66.7275,63.6515 65.7833,63.1064 66.7831,62.5253        "/></g><g><polygon fill="#B6CBEA" points="63.6842,63.6413 62.6848,64.2221 59.9933,62.6681 60.9926,62.0873        "/></g><g><polygon fill="#B6CBEA" points="66.4735,63.7992 65.4742,64.3799 64.5299,63.8348 65.5293,63.254        "/></g><g><polygon fill="#B6CBEA" points="67.6031,64.4513 66.6037,65.0321 65.6595,64.4869 66.6589,63.9062        "/></g><g><polygon fill="#B6CBEA" points="65.2197,64.5278 64.2203,65.1086 63.2761,64.5634 64.2754,63.9826        "/></g><g><polygon fill="#B6CBEA" points="66.3492,65.18 65.3499,65.7607 64.4057,65.2156 65.405,64.6348        "/></g></g><g><polygon fill="#B6CBEA" points="69.7965,61.868 69.2353,62.1942 68.291,61.6491 68.8523,61.3229       "/></g><g><polygon fill="#B6CBEA" points="68.9812,62.3418 67.9814,62.9229 67.0371,62.3777 68.037,61.7967       "/></g><g><polygon fill="#B6CBEA" points="72.0557,63.1724 71.4944,63.4986 70.5501,62.9534 71.1114,62.6272       "/></g><g><polygon fill="#B6CBEA" points="70.9261,62.5202 70.3648,62.8464 69.4206,62.3012 69.9819,61.9751       "/></g><g enable-background="new    "><g><polygon fill="#B6CBEA" points="70.1108,62.994 69.111,63.575 68.1667,63.0299 69.1666,62.4488        "/></g><g><polygon fill="#B6CBEA" points="71.2404,63.6462 70.2406,64.2272 69.2963,63.682 70.2962,63.101        "/></g><g><polygon fill="#B6CBEA" points="68.8569,63.7226 67.8571,64.3037 66.9129,63.7586 67.9127,63.1775        "/></g><g><polygon fill="#B6CBEA" points="72.37,64.2983 71.3701,64.8794 70.4258,64.3342 71.4257,63.7531        "/></g><g><polygon fill="#B6CBEA" points="69.9866,64.3748 68.9867,64.9559 68.0424,64.4107 69.0423,63.8297        "/></g><g><polygon fill="#B6CBEA" points="68.7327,65.1035 67.7333,65.6843 66.7891,65.1391 67.7884,64.5583        "/></g><g><polygon fill="#B6CBEA" points="71.1161,65.027 70.1163,65.608 68.8629,66.3364 67.9186,65.7912 69.172,65.0629          70.1718,64.4818        "/></g></g><g><polygon fill="#B6CBEA" points="66.225,66.5608 65.2256,67.1416 64.2814,66.5964 65.2807,66.0156       "/></g><g><polygon fill="#B6CBEA" points="65.0954,65.9086 64.096,66.4894 62.0222,65.2921 63.0216,64.7113       "/></g><g enable-background="new    "><g><polygon fill="#B6CBEA" points="50.5761,50.7711 50.0148,51.0973 48.9558,50.4859 49.5171,50.1597        "/></g><g><polygon fill="#B6CBEA" points="51.891,51.5303 51.3297,51.8565 50.2619,51.24 50.8232,50.9138        "/></g></g><g><polygon fill="#B6CBEA" points="53.1971,52.2843 52.6358,52.6105 51.5768,51.9991 52.1381,51.673       "/></g><g><polygon fill="#B6CBEA" points="52.3818,52.7581 51.3819,53.3392 50.323,52.7278 51.3228,52.1467       "/></g><g><polygon fill="#B6CBEA" points="51.7986,53.874 50.7988,54.4551 49.7398,53.8437 50.7396,53.2626       "/></g><g enable-background="new    "><g><polygon fill="#B6CBEA" points="49.7608,51.2449 48.761,51.826 47.702,51.2146 48.7018,50.6335        "/></g><g><polygon fill="#B6CBEA" points="51.0757,52.0041 50.0759,52.5851 49.0081,51.9686 50.0079,51.3876        "/></g><g><polygon fill="#B6CBEA" points="49.1777,52.3608 48.1778,52.9419 46.4481,51.9432 47.448,51.3622        "/></g><g><polygon fill="#B6CBEA" points="50.4925,53.1199 49.4927,53.701 48.4249,53.0845 49.4247,52.5034        "/></g></g><g><polygon fill="#B6CBEA" points="46.4045,55.1174 45.4051,55.6982 44.3461,55.0868 45.3455,54.506       "/></g><g><polygon fill="#B6CBEA" points="45.0896,54.3583 44.0902,54.939 42.687,54.1289 43.6864,53.5481       "/></g><g enable-background="new    "><g><polygon fill="#B6CBEA" points="48.2415,53.2729 47.2421,53.8536 45.1948,52.6716 46.1941,52.0908        "/></g><g><polygon fill="#B6CBEA" points="49.5564,54.032 48.557,54.6128 47.4892,53.9963 48.4886,53.4155        "/></g><g><polygon fill="#B6CBEA" points="47.6583,54.3888 46.659,54.9695 43.9409,53.4003 44.9403,52.8195        "/></g><g><polygon fill="#B6CBEA" points="48.9644,55.1428 47.965,55.7236 46.906,55.1122 47.9054,54.5314        "/></g></g><g><polygon fill="#B6CBEA" points="51.6376,58.1388 50.6382,58.7195 49.5792,58.1081 50.5786,57.5273       "/></g><g><polygon fill="#B6CBEA" points="47.7105,55.8715 46.7112,56.4522 45.6522,55.8408 46.6515,55.2601       "/></g><g enable-background="new    "><g><polygon fill="#B6CBEA" points="50.2705,55.8969 49.2711,56.4777 48.2121,55.8663 49.2115,55.2855        "/></g><g><polygon fill="#B6CBEA" points="49.0166,56.6256 48.0173,57.2063 46.9583,56.5949 47.9576,56.0141        "/></g><g><polygon fill="#B6CBEA" points="51.5854,56.6561 50.586,57.2368 49.5182,56.6203 50.5175,56.0395        "/></g><g><polygon fill="#B6CBEA" points="50.3315,57.3847 49.3322,57.9655 48.2643,57.349 49.2637,56.7682        "/></g></g><g><polygon fill="#B6CBEA" points="52.8914,57.4101 51.8921,57.9909 50.8331,57.3795 51.8324,56.7987       "/></g><g><polygon fill="#B6CBEA" points="52.9437,58.8928 51.9443,59.4736 50.8853,58.8622 51.8847,58.2814       "/></g><g><polygon fill="#B6CBEA" points="54.2585,59.652 53.2592,60.2327 52.1914,59.6162 53.1907,59.0355       "/></g><g enable-background="new    "><g><polygon fill="#B6CBEA" points="56.3088,55.0254 55.309,55.6065 54.2412,54.99 55.241,54.4089        "/></g><g><polygon fill="#B6CBEA" points="58.4302,55.3057 57.8689,55.6319 56.8099,55.0205 57.3712,54.6943        "/></g><g><polygon fill="#B6CBEA" points="54.4108,55.3821 53.4109,55.9632 52.3519,55.3518 53.3518,54.7707        "/></g><g><polygon fill="#B6CBEA" points="57.6149,55.7795 56.6151,56.3605 55.5561,55.7491 56.5559,55.1681        "/></g><g><polygon fill="#B6CBEA" points="59.7362,56.0597 59.175,56.3859 58.116,55.7745 58.6772,55.4483        "/></g><g><polygon fill="#B6CBEA" points="55.7257,56.1413 54.7258,56.7223 53.6668,56.1109 54.6667,55.5299        "/></g><g><polygon fill="#B6CBEA" points="58.921,56.5335 57.9211,57.1146 56.8621,56.5032 57.862,55.9221        "/></g><g><polygon fill="#B6CBEA" points="61.0511,56.8189 60.4899,57.1451 59.4221,56.5286 59.9834,56.2024        "/></g><g><polygon fill="#B6CBEA" points="57.0317,56.8953 56.0319,57.4764 54.9729,56.865 55.9728,56.284        "/></g><g><polygon fill="#B6CBEA" points="54.7895,57.0534 53.7901,57.6341 52.7312,57.0228 53.7305,56.442        "/></g><g><polygon fill="#B6CBEA" points="60.2359,57.2927 59.236,57.8737 58.1682,57.2572 59.1681,56.6762        "/></g><g><polygon fill="#B6CBEA" points="58.3378,57.6494 57.338,58.2305 56.279,57.6191 57.2788,57.038        "/></g><g><polygon fill="#B6CBEA" points="56.0956,57.8074 55.0962,58.3882 54.0372,57.7768 55.0366,57.196        "/></g><g><polygon fill="#B6CBEA" points="54.1975,58.1642 53.1982,58.7449 52.1392,58.1335 53.1385,57.5528        "/></g><g><polygon fill="#B6CBEA" points="59.6527,58.4086 58.6529,58.9896 57.5851,58.3731 58.5849,57.7921        "/></g><g><polygon fill="#B6CBEA" points="57.4016,58.5615 56.4023,59.1423 55.3433,58.5309 56.3427,57.9501        "/></g><g><polygon fill="#B6CBEA" points="55.5124,58.9233 54.513,59.5041 53.4452,58.8876 54.4446,58.3068        "/></g><g><polygon fill="#B6CBEA" points="58.7165,59.3206 57.7172,59.9014 56.6582,59.29 57.6576,58.7093        "/></g><g><polygon fill="#B6CBEA" points="56.8185,59.6774 55.8191,60.2581 54.7601,59.6467 55.7595,59.066        "/></g><g><polygon fill="#B6CBEA" points="55.5646,60.406 54.5653,60.9868 53.5063,60.3754 54.5056,59.7946        "/></g><g><polygon fill="#B6CBEA" points="58.1245,60.4314 57.1251,61.0122 56.0662,60.4008 57.0656,59.82        "/></g><g><polygon fill="#B6CBEA" points="56.8707,61.1601 55.8713,61.7408 54.8124,61.1295 55.8117,60.5487        "/></g></g><g><polygon fill="#B6CBEA" points="55.8092,53.7924 55.2479,54.1186 54.189,53.5073 54.7503,53.1811       "/></g><g><polygon fill="#B6CBEA" points="53.4834,56.2993 52.4841,56.8801 51.4163,56.2636 52.4156,55.6828       "/></g><g enable-background="new    "><g><polygon fill="#B6CBEA" points="53.1047,54.6281 52.1048,55.2091 51.0459,54.5977 52.0457,54.0167        "/></g><g><polygon fill="#B6CBEA" points="52.1685,55.5402 51.1692,56.1209 50.1102,55.5095 51.1095,54.9287        "/></g></g><g><polygon fill="#B6CBEA" points="54.9939,54.2662 53.9941,54.8473 52.9351,54.2359 53.935,53.6549       "/></g><g><polygon fill="#B6CBEA" points="53.6879,53.5122 52.688,54.0933 51.629,53.4818 52.6289,52.9008       "/></g><g><polygon fill="#B6CBEA" points="62.848,58.8008 61.8482,59.3819 60.7892,58.7704 61.789,58.1894       "/></g><g><polygon fill="#B6CBEA" points="60.9588,59.1626 59.9589,59.7437 58.9,59.1323 59.8998,58.5512       "/></g><g><polygon fill="#B6CBEA" points="61.542,58.0468 60.5421,58.6278 59.4831,58.0164 60.483,57.4354       "/></g><g><polygon fill="#B6CBEA" points="73.1853,63.8245 72.624,64.1507 71.6797,63.6055 72.241,63.2794       "/></g><g><polygon fill="#B6CBEA" points="54.5032,53.0384 53.9419,53.3646 52.8829,52.7532 53.4442,52.427       "/></g><g><polygon fill="#B6CBEA" points="57.1241,54.5516 56.5628,54.8778 55.495,54.2613 56.0563,53.9351       "/></g><g><polygon fill="#B6CBEA" points="68.261,60.9815 67.6998,61.3077 65.9701,60.3091 66.5313,59.9829       "/></g><g><polygon fill="#B6CBEA" points="66.2843,59.8402 65.723,60.1664 64.664,59.555 65.2253,59.2288       "/></g><g><polygon fill="#B6CBEA" points="64.9782,59.0862 64.4169,59.4124 63.3491,58.7959 63.9104,58.4697       "/></g><g><polygon fill="#B6CBEA" points="63.6633,58.327 63.102,58.6532 62.043,58.0418 62.6043,57.7156       "/></g><g><polygon fill="#B6CBEA" points="62.3572,57.573 61.796,57.8992 60.737,57.2877 61.2983,56.9616       "/></g><g><polygon fill="#B6CBEA" points="50.8624,54.7861 49.8631,55.3669 48.8041,54.7555 49.8035,54.1747       "/></g></g></g></g><g><path d="M41.3628,72.9164l1.6622-0.6367c0.9429,0.8045,1.4216,0.5478,2.6211,0.5973     c1.1847,0.0689,0.8159,0.5252,0.8159,0.5252c-0.3504,0.4097-1.4401,0.8194-1.9091,0.9281     c-0.2221,0.0494-0.4492,0.059-0.6763,0.059c-0.1925,0-0.681,0.0364-0.8735,0.061c0.0049,0.0246,0.0148,0.2369,0.0198,0.2714     c0.0098,0.0494-1.5551,0.4131-1.8068,0.0429c-0.0544-0.0791-0.1037-0.4244-0.1136-0.6317     c-0.0098-0.0545-0.0098-0.0988-0.0098-0.1285C41.0879,73.4515,41.3628,72.9164,41.3628,72.9164z" fill="#2A2A5E"/><g><g><path d="M53.95,55.6384c0.2117,0.0368,0.2667,0.0197,0.2667,0.0197c0.0925-0.0445,0.1376-0.0771,0.1577-0.1138       c0.1157-0.1619-0.4947-0.2012-0.5196-0.2057c0.3441-0.0136,0.4767-0.0982,0.5221-0.1642       c0.0376-0.061,0.0206-0.1044,0.0206-0.1044c-0.0174-0.0098-0.3504-0.1826-1.0414-0.1082       c-0.4541,0.0569-0.5513-0.0714-0.5641-0.1671c-0.0066-0.049,0.0317-0.0926,0.0796-0.0982       c0.3845-0.0446,0.5751-0.2059,0.6629-0.3434c0.0364-0.0474,0.0593-0.0932,0.0739-0.1318       c0.0191-0.0504-0.0189-0.1016-0.0702-0.0927c-0.1403,0.0253-0.4452,0.094-0.9737,0.2772       c-0.7799,0.2603-0.8168,0.577-0.937,0.6639c-0.1203,0.0866-0.4018,0.0777-0.4218,0.0811l-0.1047,0.7559l0.139-0.0293       c0.169-0.0354,0.3392,0.0096,0.473,0.115c0.4794,0.3775,1.3266,0.3876,1.739,0.3056c0.115-0.0266,0.1724-0.0572,0.1977-0.0863       c0.0553-0.0846-0.1285-0.1978-0.2029-0.2444c0.0498,0.0089,0.2044,0.0091,0.579-0.0936       c0.1073-0.0217,0.1525-0.0543,0.1776-0.0835C54.2484,55.7237,54.0668,55.6653,53.95,55.6384z" fill="#ECB4BF"/></g></g><g><g><g><g><g><g><g><g><g><g><g><g><g><g><path d="M45.8718,41.8026c0,0-3.401,0.8401-3.4213,1.0306                   c-0.0005,0.0688-0.2965,3.5274-0.2713,4.3161c0.0312,1.2851,3.4292,0.8101,2.9861-0.0733                   c-0.2857-0.58-0.6204-0.9934-0.2925-1.292c0.2142-0.1951,0.3352-0.013,0.5881-0.1925                   C46.653,44.7283,45.8718,41.8026,45.8718,41.8026z" fill="#ECB4BF"/></g></g></g></g></g></g></g></g></g></g></g></g></g><g><path d="M40.2602,60.6925c-0.7599-2.2449,0.1815-3.7355,0.3887-4.1153l3.7997,1.2087       c0,0,0.3164,3.397-0.9365,7.6698c-0.1576,0.5376-0.2461,1.0889-0.2877,1.6475c-0.1195,1.6056-0.0423,4.5666,0.0215,5.3218       c-0.3191,0.5411-1.2235,0.7917-1.9717,0.6411c0,0-0.8319-3.7171-0.4908-6.3211c0.1108-0.8463,0.1684-1.6958,0.1073-2.5469       C40.8166,63.1645,40.6462,61.8335,40.2602,60.6925z" fill="#3A3A77"/></g><g><path d="M43.9271,74.3299l1.6622-0.6367c0.9429,0.8045,1.4216,0.5478,2.6211,0.5973       c1.1847,0.0689,0.8159,0.5252,0.8159,0.5252c-0.3504,0.4097-1.4401,0.8194-1.9091,0.9281       c-0.2221,0.0494-0.4492,0.0591-0.6763,0.0591c-0.1925,0-0.681,0.0364-0.8735,0.061c0.0049,0.0246,0.0148,0.2369,0.0198,0.2714       c0.0098,0.0494-1.5551,0.4131-1.8068,0.0429c-0.0544-0.0791-0.1037-0.4244-0.1136-0.6317       c-0.0098-0.0545-0.0098-0.0988-0.0098-0.1285C43.6522,74.8651,43.9271,74.3299,43.9271,74.3299z" fill="#2A2A5E"/><path d="M42.6465,61.8542c-0.8887-2.1061-0.2931-4.2417-0.0859-4.6212l4.4521,1.9178       c0,0,0.3164,3.397-0.9365,7.6705c-0.1576,0.5373-0.246,1.0886-0.2876,1.6472c-0.1195,1.6056-0.0423,4.5666,0.0215,5.3215       c-0.3192,0.5411-1.2236,0.792-1.9717,0.6415c0,0-0.8122-3.6291-0.5025-6.2281C43.446,67.2792,43.1123,62.958,42.6465,61.8542z" fill="#4C4A8B"/></g><path d="M40.0819,48.825c-0.7157-3.9983,2.3299-3.3615,2.3299-3.3615c0.0987,0.8689,1.4858,1.1699,2.4187,0.9231      l1.772,1.3341c0.134,0.1007,0.2526,0.2191,0.3453,0.3589c0.1433,0.2162,0.2467,0.5748,0.3211,0.9658      c0.1611,0.846,0.1629,1.7125,0.0723,2.5688c-0.2007,1.8968-0.223,6.4912-0.3289,7.5372c0,0-6.2553,2.7118-6.9041-1.2793      C39.9924,57.1603,40.6643,52.1075,40.0819,48.825z" fill="#3887E5"/><path d="M46.4141,41.1934c0,0-0.5495,0.2207-1.9381-0.4356c-1.3886-0.6563-3.3531-0.0321-3.2762,2.2714      c0.0683,2.0469,0.6294,2.4183,0.7214,3.0395c0.0239,0.1616,0.1335,0.2973,0.2905,0.342      c0.5439,0.1555,1.6864,0.3548,1.6371-0.7324c-0.0646-1.4251,0.3126-2.307,0.5518-2.0518      c0.2392,0.2554,0.4618,0.7883,0.4618,0.7883l0.4274-0.1527c0.032-0.2661,0.1371-0.8929,0.4432-1.1934      C46.039,42.768,46.7435,42.3803,46.4141,41.1934z" fill="#4C4A8B"/><g><path d="M46.5329,47.661c1.8234,1.003,1.2432,4.7124,0.9217,6.2167c-0.0707,0.3308,0.1755,0.6419,0.5137,0.6454       c1.1353,0.011,3.3395,0.2519,3.7936,0.3249c0,0-0.4199,0.7247,0.0021,1.3089c0,0-5.2379,0.7468-6.1268-0.0163       C44.7484,55.3772,44.2288,46.3937,46.5329,47.661z" fill="#6B9EF9"/></g></g></g></g></g></svg>